<?xml version="1.0" encoding="utf-8"?>
<!-- Generator: Adobe Illustrator 23.0.1, SVG Export Plug-In . SVG Version: 6.00 Build 0)  -->
<svg version="1.1" xmlns="http://www.w3.org/2000/svg" xmlns:xlink="http://www.w3.org/1999/xlink" x="0px" y="0px"
	 viewBox="0 0 800 600" style="enable-background:new 0 0 800 600;" xml:space="preserve">
<style type="text/css">
	.st0{fill:#808080;stroke:#FFFFFF;stroke-width:0.5;stroke-linecap:round;stroke-linejoin:round;}
	.st1{font-family:'Roboto-Regular';}
	.st2{font-size:14px;}
</style>
<g id="Senegal">
	<path class="st0" d="M704.714,438.409l0.283,1.348l1.047,0.282l3.153,1.567l0.924,0.677l0.456,0.908l0.739,2.364l0.542,0.851
		l1.416,1.177l0.665,0.07l0.653-0.69l5.001-3.797l0.308-2.367l0.708-2.51l1.201-2.038l1.823-0.981l1.706,0.247l0.85,0.969l0.684,1.2
		l1.195,0.946l1.133,0.146l2.328-0.494l2.999-0.111l0.542,0.535l-0.16,1.744l0.314,1.215l1.318,0.149l1.496-0.386l0.862-0.402
		l0.012,2.665l0.856,2.376l2.938,4.104l2.697,2.405l0.511,1.18l-0.185,1.341l-1.521,2.205l-0.45,1.322l0.357,2.192l1.145,1.502
		l1.416,1.312l1.108,1.619l0.055,4.278l0.597,1.982l2.106,0.496l1.651,0.999l1.41,1.078l1.503,0.917l1.94,0.503l1.256,0.499
		l-0.135,0.86l-0.659,0.932l-0.24,0.705l1.644,2.38l0.671,1.495l0.462,0.768l0.474,0.398l1.035,0.496l-0.185,0.515l-0.665,0.515
		l-0.394,0.493l-0.012,1.052l-0.289,2.386l-0.326,1.217l1.86,0.354l1.379-0.575l0.868-1.393l0.29-2.127l0.998,1.062l0.548,1.254
		l0.271,1.4l0.253,3.178l-0.4,0.733l-0.764,0.464l-1.035,0.847l-0.523,0.013l-0.751-0.417l-0.844-0.284l-0.782,0.417l-0.086,0.749
		l0.579,0.663l0.69,0.625l0.259,0.648l-0.499,1.241l-0.665,1.263l-0.443,1.267l0.376,1.987l-0.185,0.527l-0.357,0.512l-0.296,0.676
		l0.049,0.755l0.468,0.284l0.56,0.076l0.296,0.101l0.154,0.111l0.437,0.562l0.517,0.878l0.382,1.026l0.253,1.247l0.111,1.459
		l-0.259,1.329l-0.831,0.887v0.549l1.256,2.26l0.222,1.159l-0.973,1.578l-1.65,0.297l-1.57,0.505l-1.262,3.213l-0.93,0.65
		l-0.733,0.915l0.111,1.799l0.456,0.297l0.905,0.341l0.93,0.663l0.585,1.256l0.025,1.268l-0.616,3.856l0.105,1.3l0.277,0.839
		l0.148,0.883l-0.296,1.401l-2.476,1.155l-0.856,0.77l1.324,0.461l0.862,0.555l1.38,2.422l0.961,0.858l-0.068-0.902l0.671-1.299
		l0.924-0.36l0.733,1.949l0.259,1.028l0.751,2l0.222,1.097l0.942-1.501l0.259-0.694l1.509,2.113l-0.24,2.851l-0.807,3.223
		l-0.222,3.241l-3.289-0.132l-7.821-2.838l-4.021-0.416l-10.266,0.782l-4.951,0.927l-9.17,3.437l-4.502,0.75l-9.749-0.41
		l-2.451-0.536l-7.205-3.046l-0.16-0.202l-0.234-0.132l-0.825,0.006l-0.517,0.208l-1.318,0.927l-4.533,2.491l-1.583,0.322
		l-2.537-0.252l-7.187-2.402l-2.956,0.095l-2.137,1.053l-3.948,3.625l-4.409,2.471L649.781,570l-1.931-0.983l-3.384-5.22
		l-2.131-1.545l-5.167-1.873l-2.503-0.612l-2.063-0.094l-2.008,0.41l-2.328,0.908l-3.479,1.923l-0.891,0.264l-0.152,0.045l-1.7-0.05
		l-0.434-0.473l-0.089-0.851l-0.637-1.16l-3.353-3.752l-1.961-1.595l-2.325-0.965l-2.448-0.284l-7.698,0.435l-2.457-0.322
		l-0.702-1.003l-0.514-1.198l-1.9-0.921l-3.532-0.259l-1.139-0.441l-1.253-1.154l-0.253-1.041l0.191-0.82l0.052-0.479l-2.959-2.612
		l-4.659-2.435l-4.332,0.051l-1.995,4.864l-0.391,2.353l-1.373,1.198l-1.952,0.139l-2.125-0.832l-2.309,0.259l-2.069-0.208
		l-1.758-0.959l-1.373-1.968l-0.53-2.372l0.431-2.012l1.774-4.151l0.453-2.101l0.129-2.455l-0.514-2.297l-1.527-1.666l-1.817-0.278
		l-2.06,0.341l-2.183,0.07l-2.146-1.111l-1.118,1.357l-0.945-0.65l-0.785-0.076l-0.841,0.126l-1.065-0.006l-1.509,0.454l-0.48,0.082
		l-0.542-0.278l-1.139-1.231l-0.659-0.322l-0.899,0.069l-2.017,0.568l-1.035,0.164l-1.038-0.17l-1.469-0.959l-1.004-0.278
		l-1.047,0.076l-3.569,0.757l-0.576,0.196l-0.277,0.347l-0.326,0.297l-0.696,0.05l-0.576-0.215l-1.025-0.732l-0.548-0.233
		l-0.376-0.103l0.003-0.017l0.376-1.887l-0.955-2.367l-1.577-0.72l-0.714,0.114l-0.579,0.284l-0.911,0.347l-1.269,0.278
		l-2.741-0.006l-1.533-0.259l-1.269-0.474l-1.54-0.776l-0.911-0.694l-0.801-1.048l-0.222-0.739l0.123-0.625l0.591-1.054l0.203-0.638
		l0.265-4.496l-0.135-0.745l-0.339-0.751l-0.314-1.08l-0.819-0.89l-0.265-0.865l-0.074-0.72l0.185-0.632l0.253-0.581l0.684-1.042
		l0.283-0.531l0.049-0.695l-0.357-0.499l-0.566-0.474l-0.092-0.373l0.437-0.114l0.604,0.07l0.702-0.044l0.493-0.246l0.179-0.796
		l-0.474-0.897l-0.468-2.9l-0.517-0.467l-1.613-1.112l-1.133-1.276l-0.406-0.986l-0.376-1.946l-0.61-0.821l-0.197-0.682l0.16-0.493
		l0.363-0.525l0.259-0.682l-0.536-3.792l-0.197-0.417l-0.53-0.31l-0.739-0.152l-0.788-0.348l-0.259-0.487l0.16-0.531l0.32-0.531
		l0.191-0.752l-0.259-0.474l-0.844-0.86l-0.862-1.138l-1.318-1.391l-1.86-1.17l-0.246-0.588l-0.012-0.721l0.074-0.746l-0.012-0.835
		l-0.443-0.443l-0.597-0.31l-0.702-0.588l-1.595-1.783l-0.837-1.821l-0.209-1.126l-0.098-2.005l-0.542-0.961l-0.049-0.759
		l0.074-0.702l0.197-0.721l-0.031-1.923l0.117-0.911l-0.123-2.606l-0.283-0.848l-0.4-0.544l-0.536-0.329l-0.052-1.103l2.759-1.31
		l0.073-6.547l2.051-1.42l-0.398,2.048l0.708,0.892l1.392,0.409l1.178-0.229l0.698-1.465l0.567-0.737l1.775-0.877l2.386-0.658
		l1.513,0.508l-0.79,2.621l1.518-0.598l1.013-2.91l1.096-0.668h4.873l4.582,0.907l1.494-0.658l1.232-0.718l1.101,0.159l1.062,1.973
		l-1.144,1.988l-0.931,1.046l-0.529,1.017l0.087,1.883l0.466,0.991l0.291,0.897l0.131,1.036l0.378,0.458l0.907-0.045l0.712-0.035
		l0.373,0.418l0.335,0.747l0.771,0.528l0.844,0.414l0.558,0.443l0.073,0.598l-0.432,1.136l0.732,1.185l0.48,1.684l-0.538,1.683
		l-0.204,1.564l1.518,1.335l-4.878,1.753v0.757l2.492,1.095l0.432,3.017l-0.213,3.704l0.538,3.116l2.298,2.683l2.337,0.602
		l5.208-1.533l3.402-1.295h1.749l3.497,0.359l3.148,1.077l2.099,1.795h2.099l1.049-1.795l1.049-1.077h2.448l2.798-1.436l2.099-1.077
		h6.645l2.448,1.077l2.099,2.154h1.749l2.798,2.872l3.148,2.154l2.448,0.718l1.049-1.795v-1.436l1.049-1.077h2.099l1.749-0.718
		l0.35-2.154l1.049-1.077l2.448,0.359l1.749,0.718l1.749-0.359v-2.154l1.049-2.154l2.798-1.795l1.749-2.155l-0.7-2.873v-2.873
		l1.749-1.437l2.448-0.359h2.448l2.099-1.078l1.399-1.078l1.749,1.078l1.749,1.078l2.798,0.359l3.847-1.078l2.098-1.437l1.399-2.515
		l0.35-2.515l1.399-1.797l2.448-0.359l0.7-1.797l1.749-1.437l3.148-0.719l2.798,0.719l1.749,2.156l1.399,1.078l1.399-0.359
		l0.7-2.156l1.049-1.437l0.699-2.875l1.399-0.719l3.847,0.719h3.148l1.749-2.156l-0.7-2.876l-3.497-4.314l-0.699-2.157l1.749-1.798
		v-2.877l2.798-1.079l3.497,2.158l3.148,2.517l3.498,1.798l3.497,2.157l4.197,1.078l3.148,1.078l0.7,2.516l0.7,2.875h2.448
		l3.148-2.157l3.148-3.595l4.197-1.078L704.714,438.409z"/>
	<path class="st0" d="M661.316,267.288l0.908,3.592l2.371,2.136l0.73,1.713l0.915,1.388l1.807,0.824l1.934,0.388l1.324,0.076
		l-0.659,1.48l-0.53,0.882l-0.228,0.834l0.283,1.346l0.838,0.703l1.213,0.286l0.905,0.745l-0.111,2.056l-0.665,1.079l-2.322,2.269
		l-0.881,1.285l-0.246,1.257l-0.117,1.498l-0.326,1.346l-0.868,0.773l-2.254,1.39l-0.721,2.122l0.268,2.57l1.401,5.371l0.305,2.502
		l-0.222,5.335l1.536,0.305l11.11,4.139l0.825,1.611l-0.517,1.529l-1.761,0.651l0.979,1.688l1.145,1.528l1.453,1.239l4.699,1.719
		l1.675,1.128l1.17,1.801l4.397,10.339l0.259,2.721l-0.875,4.985l-2.679,9.425l-0.012,5.097l1.195,3.186l1.94,1.932l2.223,1.71
		l2.082,2.516l0.727,2.309l-0.018,2.496l-0.708,4.976l-1.897,5.479l-3.991,4.128l-10.167,5.737l1.638,1.404l1.607,2.418l2.451,4.769
		l1.49,4.426l2.642,4.147l2.186,2.486l6.885,5.051l0.751,0.845l1.059,1.827l0.677,0.788l1.244,0.621l1.102,0.139l0.961,0.412
		l0.825,1.422l-0.259,2.178l-1.706,6.565l-6.944,1.292l-4.197,1.078l-3.148,3.595l-3.148,2.157h-2.448l-0.7-2.875l-0.7-2.516
		l-3.148-1.078l-4.197-1.078l-3.497-2.157l-3.498-1.798l-3.148-2.517l-3.497-2.158l-2.798,1.079v2.877l-1.749,1.798l0.699,2.157
		l3.497,4.314l0.7,2.876l-1.749,2.156h-3.148l-3.847-0.719l-1.399,0.719l-0.699,2.875l-1.049,1.437l-0.7,2.156l-1.399,0.359
		l-1.399-1.078l-1.749-2.156l-2.798-0.719l-3.148,0.719l-1.749,1.437l-0.7,1.797l-2.448,0.359l-1.399,1.797l-0.35,2.515
		l-1.399,2.515l-2.098,1.437l-3.847,1.078l-2.798-0.359l-1.749-1.078l-1.749-1.078l-1.399,1.078l-2.099,1.078h-2.448l-2.448,0.359
		l-1.749,1.437v2.873l0.7,2.873l-1.749,2.155l-2.798,1.795l-1.049,2.154v2.154l-1.749,0.359l-1.749-0.718l-2.448-0.359l-1.049,1.077
		l-0.35,2.154l-1.749,0.718h-2.099l-1.049,1.077v1.436l-1.049,1.795l-2.448-0.718l-3.148-2.154l-2.798-2.872h-1.749l-2.099-2.154
		l-2.448-1.077h-6.645l-2.099,1.077l-2.798,1.436h-2.448l-1.049,1.077l-1.049,1.795h-2.099l-2.099-1.795l-3.148-1.077l-3.497-0.359
		h-1.749l-3.402,1.295l-5.208,1.533l-2.337-0.602l-2.298-2.683l-0.538-3.116l0.213-3.704l-0.432-3.017l-2.492-1.095v-0.757
		l4.878-1.753l-1.518-1.335l0.204-1.564l0.538-1.683l-0.48-1.684l-0.732-1.185l0.432-1.136l-0.073-0.598l-0.558-0.443l-0.844-0.414
		l-0.771-0.528l-0.335-0.747l-0.373-0.418l-0.712,0.035l-0.907,0.045l-0.378-0.458l-0.131-1.036l-0.291-0.897l-0.466-0.991
		l-0.087-1.883l0.529-1.017l0.931-1.046l1.144-1.988l-1.062-1.973l-1.101-0.159l-1.232,0.718l-1.494,0.658l-4.582-0.907h-4.873
		l-1.096,0.668l-1.013,2.91l-1.518,0.598l0.79-2.621l-1.513-0.508l-2.386,0.658l-1.775,0.877l-0.567,0.737l-0.698,1.465
		l-1.178,0.229l-1.392-0.409l-0.708-0.892l0.398-2.048l-2.051,1.42l-0.073,6.547l-2.759,1.31l0.052,1.103l-1.441-0.013l-0.745-0.139
		l-0.874-0.62l-0.376-0.772l-0.246-0.879l-0.154-1.031l-0.339-0.633l-0.517-0.392l-1.718-0.614l-1.164-0.816l-0.474-0.696
		l-0.111-0.709l0.339-1.329l0.105-0.772l-0.049-0.962l-0.413-0.569l-0.647-0.367l-0.671-0.487l-0.246-0.551l0.117-0.525l1.065-1.5
		l0.265-0.576l0.031-0.785l-0.394-0.424l-0.653-0.202l-1.57,0.063l-2.901,0.538l-0.764,0.07l-0.739-0.013l-0.788-0.101l-0.739-0.228
		l-0.739-0.43l-0.234-0.576l0.123-0.526l0.326-0.494l0.382-0.456l0.339-0.494l0.308-0.532l0.16-0.671l0.031-0.747l-0.037-0.734
		l0.031-0.696l0.148-0.646l0.253-0.551l0.314-0.519l2.18-2.14l0.357-0.5l0.24-0.639l-0.111-0.298l-0.388-0.241l-1.232-0.329
		l-1.798-0.697l-0.659-0.133l-0.708-0.032l-0.671,0.139l-0.628,0.222l-1.035,0.652l-0.628,0.158l-0.727-0.108l-0.807-0.633
		l-0.296-0.703l-0.006-0.703l0.228-0.595l0.32-0.507l0.48-0.608l0.08-0.203l0.068-0.38v-1.178l0.443-1.21l0.099-0.773l-0.32-0.45
		l-0.542-0.203l-1.342,0.032l-1.244-0.171l-0.591,0.139l-0.468,0.342l-0.326,0.526l-0.191,0.627l-0.259,0.583l-0.425,0.393
		l-0.671,0.139l-1.318,0.127l-1.084,0.462l-1.561,0.702l-0.25-0.215l-0.619-1.032l-0.761-2.325l-0.616-1.067l-1.995-1.638
		l-2.861-1.463l-3.027-1.061l-2.503-0.437l-1.598,0.26l-2.426,1.435l-1.401,0.627l-1.244,0.196l-2.072-0.177l-1.281,0.044
		l-2.417,0.608l-5.512,2.841l-6.876,1.565l-2.26,0.985l-6.605,4.142l-6.999,2.514l-2.066,0.5l-2.177-0.304l-2.864-1.352
		l-8.646-6.224l-0.97-0.698l-1.204-1.321l-0.773-1.644l-1.592-5.325l-1.133-2.344l-1.61-2.031l-2.306-1.86l-5.118-2.408
		l-4.902-0.374l-4.828,1.302l-7.316,4.116l-1.472,0.475l-1.669-0.605l-4.896-2.982l-0.825-0.935l-2.315-7.958l-1.065-2.26
		l-1.509-2.092l-1.947-1.585l0.476-1.607l2.155-3.748l1.41-2.01l1.65-1.763l1.238-0.482l1.404-0.266l1.54-0.063l0.696-0.114
		l1.176-0.545l5.493-1.396l0.53-0.317l2.827-2.22l7.002-6.763l0.345-0.571l0.24-0.914l0.253-1.479l-0.099-2.177l0.48-2.177
		l0.16-0.209l0.48-0.254l1.065-0.413l1.127-0.565l0.487-0.685l0.511-0.933l1.059-5.059l0.006-2.07l-0.24-2.394l-1.09-5.468
		l-0.523-9.337l-0.64-2.173l-1.503-2.262l-2.71-7.995l0.086-23.164l14.805-3.613l5.703-4.091l3.547-4.238l2.168-1.884l1.792-0.942
		l4.921-1.578l5.198,4.888l1.053,2.31l2.174,1.667l1.958,1.126l51.89,19.787l5.863,0.922l32.615-0.521l1.318-0.636l31.297-22.581
		l0.948-0.509l1.269-0.407l32.183,5.949l5.124-0.064l17.921-2.31l1.453-0.719l1.49-1.648l9.761-14.971l9.084-23.103l0.222-1.122
		l0.037-0.911l-0.579-2.868l-0.838-1.976l-12.526-16.731l-0.253-0.914l1.229-0.161l3.769-1.158l1.832-0.281l1.112,0.392l0.939,0.944
		l1.54,1.955l6.565,3.9l2.081,1.581l1.266,0.749l2.79,0.65l1.272,0.708l1.028,1.176l0.567,1.202l2.777,9.842l0.068,1.329
		l1.644,0.988l4.021,4.814l2.097,1.771l7.498,3.555L661.316,267.288z"/>
	<path class="st0" d="M530.744,527.997l-5.358-1.469l-38.554-1.42l-42.243-0.177l-31.027-0.13l-11.226-0.047l-42.237-0.183
		l-9.585-0.04l-32.661-0.137l-0.962-7.502l1.049-3.586l1.749-3.945v-5.739v-4.305l-2.099-3.588l-2.448-2.871l-0.35-4.307l0.35-3.23
		l-4.197-2.872l-3.847-2.513l-0.35-2.872l-0.35-3.95l-2.448-6.464l-1.749-2.874l-5.596-1.078l-4.197-2.874l-0.699-4.311l1.399-4.671
		l1.049-4.672l0.319-5.36l3.88-0.718l3.904-1.453l3.424-2.288l2.451-3.21l0.72-3.387l0.45-7.581l1.669-2.724l2.695-2.812
		l2.484-2.591l2.722-1.102l3.276,2.145l5.352,5.052l5.918,4.316l0.018,0.006l0.025,0.019l0.018,0.013l7.79,4.002l4.028,1.061
		l4.563,0.374l1.792,0.529l3.984,2.457l2.186,0.715l2.439,0.468l1.275,0.791l2.402,3.371l3.326,2.984l3.984,1.693l4.354,0.522
		l4.415-0.522l3.861-0.975l1.361,0.487l3.411,3.192l1.103,1.032l1.583,0.905l1.724,0.503l3.75,0.152l1.586,0.449l1.333,1.389
		l0.911,1.231l1.127,1.019l1.262,0.87l4.345,2.262l3.116,0.889l3.224,0.253l6.777-0.601l6.469,1.221l3.449-0.12l2.605-1.294
		l5.724-4.34l1.786-0.807l2.063,0.025l5.115-1.864l4.803-0.057l4.785-1.294l9.004-0.778l5.903-2.595l3.393-5.2l0.459-6.267
		l-2.857-5.794l-1.204-1l-2.704-1.605l-0.837-0.72l1.561-0.702l1.084-0.462l1.318-0.127l0.671-0.139l0.425-0.393l0.259-0.583
		l0.191-0.627l0.326-0.526l0.468-0.342l0.591-0.139l1.244,0.171l1.342-0.032l0.542,0.203l0.32,0.45l-0.099,0.773l-0.443,1.21v1.178
		l-0.068,0.38l-0.08,0.203l-0.48,0.608l-0.32,0.507l-0.228,0.595l0.006,0.703l0.296,0.703l0.807,0.633l0.727,0.108l0.628-0.158
		l1.035-0.652l0.628-0.222l0.671-0.139l0.708,0.032l0.659,0.133l1.798,0.697l1.232,0.329l0.388,0.241l0.111,0.298l-0.24,0.639
		l-0.357,0.5l-2.18,2.14l-0.314,0.519l-0.253,0.551l-0.148,0.646l-0.031,0.696l0.037,0.734l-0.031,0.747l-0.16,0.671l-0.308,0.532
		l-0.339,0.494l-0.382,0.456l-0.326,0.494l-0.123,0.526l0.234,0.576l0.739,0.43l0.739,0.228l0.788,0.101l0.739,0.013l0.764-0.07
		l2.901-0.538l1.57-0.063l0.653,0.202l0.394,0.424l-0.031,0.785l-0.265,0.576l-1.065,1.5l-0.117,0.525l0.246,0.551l0.671,0.487
		l0.647,0.367l0.413,0.569l0.049,0.962l-0.105,0.772l-0.339,1.329l0.111,0.709l0.474,0.696l1.164,0.816l1.718,0.614l0.517,0.392
		l0.339,0.633l0.154,1.031l0.246,0.879l0.376,0.772l0.874,0.62l0.745,0.139l1.441,0.013l0.536,0.329l0.4,0.544l0.283,0.848
		l0.123,2.606l-0.117,0.911l0.031,1.923l-0.197,0.721l-0.074,0.702l0.049,0.759l0.542,0.961l0.098,2.005l0.209,1.126l0.837,1.821
		l1.595,1.783l0.702,0.588l0.597,0.31l0.443,0.443l0.012,0.835l-0.074,0.746l0.012,0.721l0.246,0.588l1.86,1.17l1.318,1.391
		l0.862,1.138l0.844,0.86l0.259,0.474l-0.191,0.752l-0.32,0.531l-0.16,0.531l0.259,0.487l0.788,0.348l0.739,0.152l0.53,0.31
		l0.197,0.417l0.536,3.792l-0.259,0.682l-0.363,0.525l-0.16,0.493l0.197,0.682l0.61,0.821l0.376,1.946l0.406,0.986l1.133,1.276
		l1.613,1.112l0.517,0.467l0.468,2.9l0.474,0.897l-0.179,0.796l-0.493,0.246l-0.702,0.044l-0.604-0.07l-0.437,0.114l0.092,0.373
		l0.566,0.474l0.357,0.499l-0.049,0.695l-0.283,0.531l-0.684,1.042l-0.253,0.581l-0.185,0.632l0.074,0.72l0.265,0.865l0.819,0.89
		l0.314,1.08l0.339,0.751l0.135,0.745l-0.265,4.496l-0.203,0.638l-0.591,1.054l-0.123,0.625l0.222,0.739l0.801,1.048l0.911,0.694
		l1.54,0.776l1.269,0.474l1.533,0.259l2.741,0.006l1.269-0.278l0.911-0.347l0.579-0.284l0.714-0.114l1.577,0.72l0.955,2.367
		l-0.376,1.887L530.744,527.997z"/>
	<path class="st0" d="M317.853,524.395l-5.826-0.025l-3.418,0.518l-3.091,1.414l-6.922,4.999l-7.248,3.338l-6.326,4.669
		l-0.343,0.253l-30.083,14.129l-4.108,0.864l-20.551-1.217l-0.024-0.032l-0.523-0.694l-3.701-5.481l-1.152-2.624l-2.162-3.161
		l-1.712-3.603l-0.345-3.212l0.097-0.734l1.892,1.516l0.999,1.123l1.387,0.248l7.637,0.124l0.732,0.536l1.542,1.625l0.572,0.343
		l1.052-0.144l3.055-0.765l1.367-0.85l1.324-1.61l1.688-0.969l2.492,1.083l0.65-0.561l0.757-0.373l0.771-0.015l1.629,1.187
		l0.693-0.119l0.611-0.298l0.66,0.179l0.931,1.078l0.8,2.072l0.64,0.939l0.771,0.71l0.853,0.517l1.077,0.318l1.445,0.04l1.353-0.278
		l5.446-2.255l2.182-2.236l3.661-4.775l1.363-1.014l1.212-0.626l0.863-0.85l0.33-1.68l-0.684-0.745l-1.304-0.571l-0.727-0.661
		l1.018-0.979l-1.164-2.769l-1.086-3.718l-0.388-3.808l1.018-3.053l1.377-0.835l1.707-0.06l1.789,0.159l1.629-0.174l1.658-0.731
		l1.13-0.88l0.747-1.119l0.538-1.442l2.449,2.397l2.24,0.646l1.523-1.288l0.291-3.417l-1.843,1.94l-1.755-0.06l-1.799-0.791
		l-1.925-0.264l-1.799,0.801l-2.939,2.173l-2.138,0.448l-1.207,0.005l-1.789,0.254l-1.62,0.855l-0.708,1.8v7.09l1.348,4.583
		l0.209,1.258l0.073,1.993l-0.087,0.984l-0.359,0.815l-2.885,2.5l-0.917,1.193l-6.003,5.48l-1.581,0.994l-1.416,0.069l-1.241-0.556
		l-1.047-0.889l0.679-3.652l-3.617-1.65l-8.452-1.371l-5.736,3.667l-2.104,0.502l-0.407-0.388l-0.524-0.86l-0.858-0.865
		l-1.426-0.388l-1.455,0.263l-2.012,1.148l-1.45,0.258l-1.382-0.388l-1.794-0.934l-2.968-2.017l-0.141-0.601l0.15-0.865l0.058-0.775
		l-0.446-0.328l-1.581-0.214l-0.829-0.248l-0.538-0.298l-0.747-1.014l-1.624-3.236l-0.436-0.412l-0.548-0.229l-0.456-0.427
		l-0.451-2.605l-0.616-1.402l0.003-0.013l-0.19-1.029l0.246-1.711l0.505-1.092l0.985-7.578l0.283-0.733l0.616-0.796l1.262-1.225
		l0.32-0.657l0.216-0.809l0.179-2.514l0.376-1.251l-0.548-2.098l-0.179-1.276l0.135-1.403l5.358-8.62l4.797-10l0.031-0.885
		l-0.702-0.879l-0.813-0.386l-0.874-0.291l-0.764-0.43l-0.135-1.024l0.585-1.454l2.045-2.308l1.122-1.924l3.177,0.03l4.465,0.038
		l0.801-0.591l0.222-8.72l0.044-1.91l0.202-8.683l0.474-1.728l1.38-0.766l8.308-0.804l5.352-1.715l1.503-0.038l8.037,0.788
		l1.946-0.196l3.584-1.206l2.753-1.51l2.79-1.054l3.72,0.165l13,2.785l4.391-0.006l-0.319,5.36l-1.049,4.672l-1.399,4.671
		l0.699,4.311l4.197,2.874l5.596,1.078l1.749,2.874l2.448,6.464l0.35,3.95l0.35,2.872l3.847,2.513l4.197,2.872l-0.35,3.23
		l0.35,4.307l2.448,2.871l2.099,3.588v4.305v5.739l-1.749,3.945l-1.049,3.586L317.853,524.395z"/>
	<path class="st0" d="M229.936,553.337l-1.182-0.07l-9.459,0.675l-2.291-0.422l-7.452-2.504l-4.231-0.378l-9.004,1.57l-0.807,0.353
		l-0.517,0.404l-0.56,0.227l-0.979-0.17l-2.574-1.022l-1.275-0.233l-1.25,0.265l-8.228,4.478l-9.545,5.17l-3.609,1.475l-6.004,0.051
		l-6.22,1.557l-2.199,0.088l-16.153-1.084l-4.379,1.059l-2.72,1.891l-0.784-1.541l-0.563-1.613l-0.524-2.497l-0.757-0.829
		l-1.789-1.261l-2.74-2.681l-1.222-1.579l-0.504-1.574v-5.08l0.262-1.103l1.174-1.073l0.267-1.118l0.873-1.286l5.921-3.557
		l2.599-0.089l3.7,0.313l3.986-2.504l1.275-1.068l0.679-0.994l0.519-1.024l0.786-1.153l4.563-3.339l2.192,2.564l1.688,4.631
		l1.654,1.043l0.073-1.898l1.222-1.49l2.109-0.606l2.342,0.527l3.996,2.285l3.588,0.994l3.947,1.868l2.071,0.164l2.342-1.133
		l2.866-3.562l2.109-1.143l2.774,0.119l2.361,0.86l2.357,0.253l2.72-1.684l1.387-0.561l0.926,1.068l0.698,1.55l0.684,0.894
		l9.281-3.483l2.134-0.507l2.856-0.179l1.848-0.547l1.542-1.133l1.775-0.914l2.609,0.099l2.09,1.133l3.156,2.519l-0.097,0.734
		l0.345,3.212l1.712,3.603l2.162,3.161l1.152,2.624l3.701,5.481l0.523,0.694L229.936,553.337z M126.294,477.236l0.182-2.818
		l0.431-1.369l0.757-0.999l1.884-1.865l0.376-1.176l1.761-2.991l4.157-0.933l5.185,0.051l19.639,0.18l18.105,0.164l26.364,0.24
		l15.531,0.139l7.662,0.072l-1.122,1.924l-2.045,2.308l-0.585,1.454l0.135,1.024l0.764,0.43l0.874,0.291l0.813,0.386l0.702,0.879
		l-0.031,0.885l-4.797,10l-5.358,8.62l-0.135,1.403l0.179,1.276l0.548,2.098l-0.376,1.251l-0.179,2.514l-0.216,0.809l-0.32,0.657
		l-1.262,1.225l-0.616,0.796l-0.283,0.733l-0.985,7.578l-0.505,1.092l-0.246,1.711l0.19,1.029l-0.003,0.013h-0.737v0.905
		l-0.175,0.502l-1.28,2.505l-0.553,0.79l-0.446,4.165l-3.326,2.127l-4.878,0.835l-1.261,0.547l-2.454,1.615l-0.727,0.333
		l-1.261-0.139l-2.885-0.765h-4.505l-1.338,0.318l-2.274,1.014l-1.275,0.338h-1.435l-3.85-0.765l-1.295,0.263l-1.658,1.148
		l-1.077,0.258l-0.407,0.576l-0.587,1.312l-0.815,1.386l-1.072,0.82l-4.888-1.595l-3.957-2.266l-1.848-1.555l-0.776-1.635
		l-0.475-0.283l-1.091-0.343l-1.101-0.542l-0.587-0.875l0.199-1.213l0.757-1.083l1.096-0.775l1.203-0.268v-0.91l-1.833-0.045
		l-1.159-0.924l-0.669-1.481l-0.407-1.72l-0.815,10.079h-0.897l-1.576-2.122l-4.379-3.802l-0.543-2.406l-1.397,1.123l-0.921,1.357
		l-1.086,1.133l-1.886,0.477l-1.426-0.298l-0.965-0.835l-0.475-1.297l0.087-1.66l1.688-3.191l2.376-2.396l1.561-2.774l-0.737-4.311
		l-0.533,3.312l-0.281,0.94l-0.64,1.074l-0.553,0.527l-0.567,0.353l-2.371,2.202l-1.009,1.258l-0.495,1.581l-0.146,2.595
		l0.853,4.329l-0.252,1.998l-3.588,1.545l-5.213,4.378l-4,1.406l-2.201-1.312l-0.926-3.16l-0.199-4.139l0.65-4.314l1.891-4.295
		l3.069-2.406l4.161,1.382l0.189-1.81l-1.702-1.332l-2.468-0.497l-2.095,0.726l-2.454,3.028l-1.363,0.984l-1.508-0.333l0.708-0.994
		l0.242-1.054l-0.242-1.034l-0.708-1.014l2.589-3.63l0.519-1.81l-0.587-2.148h-0.892l-0.558,1.353l-0.815,0.597l-0.742-0.467
		l-0.32-1.86l0.291-1.462l0.713-1.562l4.253-6.357l0.432-1.552l-0.121-1.562l-0.562-2.866l-0.131-1.403l0.267-2.558l1.174-5.081
		l0.262-3.26l-0.184-2.001L126.294,477.236z"/>
	<path class="st0" d="M341.365,32.592l0.906,1.806l1.238,1.575l2.198,0.341l3.633-0.874l20.353,1.478l1.373-0.167l4.027-1.06
		l1.182-0.032l1.047,0.296l3.35,1.6l1.312,0.231l1.318-0.045l4.991-1.42l1.272-0.032l4.831,1.016l1.29,0.026l1.275-0.148
		l1.244-0.341l1.179-0.546l3.125-1.89l1.142-0.45l2.337-0.148l7.553,3.002l0.921,0.636l0.499,0.925l-0.049,1.362l-0.628,2.365
		l0.203,0.951l1.115,0.508l4.566-0.411l1.155,0.553l0.403,0.964l0.157,2.223l0.619,0.964l1.241,0.585l2.857,0.199l1.358,0.244
		l0.967,0.578l2.023,2.672l0.847,0.79l2.824,2.017l4.046,4.752l7.079,6.459l3.957,2.304l0.807,0.751l2.082,2.51l1.059,0.693
		l2.343,0.918l1.096,0.61l0.714,0.841l0.083,0.866l-0.751,1.912l-0.222,1.052l0.243,0.808l1.173,1.546l0.523,1.116l0.043,1.046
		l-0.61,2.226l0.443,1.982l2.029,1.11l4.674,1.379l0.982,0.584l1.878,1.437l0.785,0.853l0.591,1.007l1.007,3.34l0.566,1.186
		l0.751,1.09l0.945,0.923l1.081,0.679l1.007,0.256l0.967-0.096l0.939-0.346l1.952-1.135l1.921-1.487l0.813-0.898l2.115-3.09
		l0.899-0.872l1.01-0.59l1.05-0.295l1.105-0.058l1.139,0.135l-0.243,1.59l-0.677,2.082l-0.533,1.637l0.382,1.301l-4.979,10.436
		l-12.107,4.949l-1.729,4.498l-13.404,12.14l-19.025,15.729l-17.728,13.923l-4.756-3.592l-9.08-4.491l-9.945-5.39l-5.189-7.189
		l-6.053-8.989l-13.404-9.442l-6.252,0.428l-9.575-5.149l-2.02-0.717l-68.196-0.146l-0.867,8.282l-18.73,1.305l-1.293-0.833
		l-24.498-28.201l-2.488-2.327l-1.503-0.955l-0.751,0.923l-0.431,0.43l-1.989,1.462l-2.272,1.18l-0.517,0.346l-0.37,0.475
		l-0.468,1.224l-1.244,2.141l-0.837,0.987l-0.751,0.564l-22.49,12.771l-0.031,0.032l-0.616,0.352l-4.145,3.466l-0.813,0.897
		l-0.32,0.519l-0.283,0.564l-0.333,1.268l-0.308,0.615l-0.628,0.474l-5.136,2.696l-1.195,0.999l-0.782,1.498l-1.497,4.104
		l-0.505,0.851l-0.911,0.98l-1.675,0.275l-1.848,0.096l-2.032,0.327l-1.675,0.646l-2.58,1.882l-2.248,0.742l-2.266,0.416
		l-19.3,0.429h-0.129h-0.025l-0.17-0.393l2.695-4.651l1.17-6.831l0.283-13.496l0.708-1.422l1.644-5.479l2.069-4.999l0.53-8.398
		l0.862-2.494l1.737-1.507l4.397-1.058l1.86-1.231l0.751-1.264l0.511-1.456l4.877-21.017l0.622-4.957l0.899-2.331l1.65-2.331
		l2.199-2.152l2.537-1.561l2.716-0.552l3.941,0.758l1.336,0.096l1.355-0.244l1.213-0.572l3.504-2.512l1.367-0.642l1.435-0.257
		l1.503,0.296l1.096,0.674l0.881,0.919l1.441,2.158l2.02,2.152l2.414,1.175l2.691,0.315l2.845-0.405l0.85-0.61l0.844-0.443
		l0.893-0.154l0.992,0.238l1.54,0.617l0.751,0.071l0.881-0.173l4.724-2.12l1.681-0.193l4.163,1.015h1.004l2.938-0.533l1.903,0.096
		l5.389,1.779l3.868,0.218l1.01,0.302l2.814,1.349l1.866,0.482l1.829-0.103l1.761-0.597l1.644-1.053l2.636-2.434l1.41-0.88
		l1.817-0.289l5.118,1.06l1.761-0.173l1.416-0.707l1.145-1.086l2.894-4.176l1.478-1.323l1.73-0.784l1.804,0.161l1.121,0.932
		l0.684,1.266l0.813,1.163l1.472,0.636l1.755-0.038l1.675-0.424l5.019-2.107l1.86-0.405l3.824-0.135l5.641,0.9l1.921-0.071
		l12.797-2.03l2.513-0.951l0.776-0.514l0.511-0.707l0.043-0.925l-0.394-0.79l-1.928-1.896l-0.708-1.665l0.24-1.607l1.035-1.228
		l1.7-0.469l1.718,0.521l1.078,1.208l0.936,1.427l1.244,1.195l0.856,0.283l0.887-0.084l0.844-0.36l0.739-0.559l0.585-0.765
		l0.265-0.803l0.376-1.742l0.77-1.151l1.225-0.823l2.66-1.112l1.355,0.694l1.558,1.678L341.365,32.592z"/>
	<path class="st0" d="M487.869,99.047l0.564,0.353l1.235,0.487l0.539,0.397l0.132,0.212l0.185,0.442l0.154,0.179l0.289,0.173
		l0.73,0.282l0.329,0.18l0.782,0.692l0.262,0.16l0.831,0.147l0.779-0.211l3.264-1.756l0.687-0.147l2.238-0.013l0.419-0.045
		l0.902-0.276l3.615-1.577l6.275-1.346l1.623-0.667l0.659-0.205l0.68-0.026l0.788,0.16l0.219,1.731l-1.998,3.769l-0.219,1.923
		l1.21,0.833l4.345-1.711l1.795,0.045l0.591,0.66l0.958,1.673l0.588,0.724l3.279,2.224l0.717,0.891l0.299,0.955l0.12,2.172
		l0.163,0.955l1.657,4.177l0.767,1.288l0.899,1.185l1.047,1.089l3.008,2.306l0.696,0.954l0.262,1.031l-0.074,1.057l-0.456,2.094
		v1.018l0.256,0.832l0.508,0.743l2.159,2.535l1.059,1.908l0.573,2.112l0.034,2.394l-0.265,1.043l-0.397,1.049l-0.265,1.05
		l0.157,1.056l0.616,0.845l0.834,0.659l1.823,1.075l0.955,0.749l0.801,0.864l1.358,2.003l0.511,1.03l0.135,0.908l-0.209,0.908
		l-1.801,2.834l-0.437,1.004l-0.129,1.1l0.172,1.042l1.127,3.076l1.792-0.051l3.575-0.633l1.737,0.096l0.856,0.352l2.205,1.602
		l0.871,0.355l2.744,0.748l1.49,0.876l1.275,1.18l0.859,1.454l0.28,1.742l-0.671,4.653l0.015,1.077l0.222,1.051l0.419,1.134
		l0.684,0.531l3.648,0.946l1.709-0.221l1.801-1.121l1.577-1.278l1.752-0.981l1.866-0.256l1.891,0.882l0.751,0.917l0.366,1.074
		l0.48,3.419l0.394,0.84l1.198,1.588l0.536,0.926l0.225,0.958l0.018,4.139l0.453,2.015l0.982,1.9l1.447,1.568l7.098,4.869
		l1.518,1.612l0.773,2.021l-0.644,1.714l-1.977,0.322l-4.071-0.425l-1.213,0.922l0.717,1.542l2.725,2.741l1.038,0.826l1.059,0.376
		l1.139,0.022l2.547-0.533h1.259l1.201,0.345l1.084,0.756l0.625,0.849l0.299,0.948l0.025,1.015l-0.644,3.133l0.08,0.973l0.366,1.12
		l0.139,0.332l3.002,0.966l0.945,0.917l3.526,3.421l3.187,1.362l0.086-0.011l0.253,0.914l12.526,16.731l0.838,1.976l0.579,2.868
		l-0.037,0.911l-0.222,1.122l-9.084,23.103l-9.761,14.971l-1.49,1.648l-1.453,0.719l-17.921,2.31l-5.124,0.064l-32.183-5.949
		l-1.269,0.407l-0.948,0.509l-31.297,22.581l-1.318,0.636l-32.615,0.521l-5.863-0.922l-51.89-19.787l-1.958-1.126l-2.174-1.667
		l-1.053-2.31l-5.198-4.888l-4.921,1.578l-1.792,0.942l-2.168,1.884l-3.547,4.238l-5.703,4.091l-14.805,3.613l0.215-1.883
		l0.043-1.406l-0.197-1.54l-0.788-0.808l-1.884-0.757l-19.386-5.772l-3.178-1.515l-2.205-1.929l4.563-3.424l1.73-9.835l5.189-3.577
		l4.324-8.945l-5.189-11.633l-3.459-12.086l8.215-3.134l13.404-1.791l9.448-2.831l-5.124-2.543l2.162-13.44l3.892-17.035
		l-9.945,1.345l-19.89-10.315l4.324-6.73l0.865-22.445l3.459-1.347l6.053-2.246l4.756-3.144l9.512-8.986l5.189,7.189l9.945,5.39
		l9.08,4.491l4.756,3.592l17.728-13.923l19.025-15.729l13.404-12.14l1.729-4.498l12.107-4.949L487.869,99.047z"/>
	<path class="st0" d="M351.926,391.404l-2.259-1.839l-4.354-1.455l-12.033-0.545l-7.094-2.708l-2.55-0.127l-8.689,3.215
		l-8.979,5.773l-2.537,0.605l-1.01-0.767l-2.309-3.085l-1.115-1.065l-5.161-0.831l-5.518,2.102l-6.055-2.842h-3.459l-4.756-0.445
		l-8.215-3.562l-2.594,4.007l-2.162,3.562l-2.162,0.89l-3.027-1.336l-3.459-3.562l-1.73-3.562v-3.117l1.297-3.118l-0.432-3.118
		l-5.189-3.118l-4.324-4.455l-1.297-2.674l-0.432-3.119l-1.729-2.228l-5.189-0.891v-6.24v-8.026l1.297-4.46l3.027-6.691l2.162-5.354
		l0.172-11.899l3.15-2.454l2.767-3.428l4.704-5.429l3.044-0.286l2.767-1.429l5.534-4.573l2.49-2.001l2.767-0.572l5.811-0.858
		l6.364-1.144l4.427-1.143l3.597-4.003l2.557-11.271l9.524,5.777l5.986,2.279l18.192,3.66l4.052,0.401l2.796-0.656l2.297-0.91
		l10.543-6.518l2.038-0.968l1.971-0.458l1.478,1.159l2.722,3.705l2.205,1.929l3.178,1.515l19.386,5.772l1.884,0.757l0.788,0.808
		l0.197,1.54l-0.043,1.406l-0.215,1.883l-0.086,23.164l2.71,7.995l1.503,2.262l0.64,2.173l0.523,9.337l1.09,5.468l0.24,2.394
		l-0.006,2.07l-1.059,5.059l-0.511,0.933l-0.487,0.685l-1.127,0.565l-1.065,0.413l-0.48,0.254l-0.16,0.209l-0.48,2.177l0.099,2.177
		l-0.253,1.479l-0.24,0.914l-0.345,0.571l-7.002,6.763l-2.827,2.22l-0.53,0.317l-5.493,1.396l-1.176,0.545l-0.696,0.114l-1.54,0.063
		l-1.404,0.266l-1.238,0.482l-1.65,1.763l-1.41,2.01l-2.155,3.748L351.926,391.404z"/>
	<path class="st0" d="M275.928,406.623l-0.291,1.661l-0.24,4.869l-1.872,0.634l-5.832-0.019l-7.396-0.032l-7.408-0.025l-7.396-0.032
		l-7.409-0.025l-7.402-0.032l-7.396-0.025l-7.408-0.032l-7.402-0.025l-2.542-0.007l-0.014-0.031l-0.37-0.843l-0.671-2.389
		l-1.614-2.154l-3.837-3.523l-1.01-1.236l-0.653-1.154l-0.419-1.768l-0.554-4.019l-0.499-1.61l-0.745-0.989l-0.874-0.672
		l-1.872-1.128l-3.794-3.17l-1.182-1.217l-0.407-1.065l-0.148-1.04l0.086-1.801l0.123-0.863l0.271-0.825l0.69-0.774l1.724-1.497
		l1.355-1.776l0.591-0.932l0.376-0.964l0.117-0.926l-0.025-0.945l-1.38-8.401l-0.745-1.244l-1.472-1.345l-2.439-3.135l-0.074-1.009
		l0.394-0.933l1.256-1.803l0.382-0.965l0.166-1.346l-0.117-1.555l-0.499-2.686l-0.757-1.321l-0.838-0.991l-1.65-1.384l-3.43-2.223
		l-0.659-0.527l-0.653-0.381l-0.653-0.14l-7.655-0.184l-0.017,0l0.9-0.632l-1.845-0.07l0.007-0.009l1.712-2.312l1.189-4.142
		l5.967-8.959l3.27-3.909l1.355-1.125l1.176-0.598l3.831-0.343l7.187-1.564l6.14-0.547l1.035,0.095l0.025,0.629l0.629,0.54
		l10.116,1.736l2.49-0.857l2.214-2.285l2.49-1.143l5.811,0.286l8.854,0.286l3.767-2.402l-0.172,11.899l-2.162,5.354l-3.027,6.691
		l-1.297,4.46v8.026v6.24l5.189,0.891l1.729,2.228l0.432,3.119l1.297,2.674l4.324,4.455l5.189,3.118l0.432,3.118l-1.297,3.118v3.117
		l1.73,3.562l3.459,3.562l3.027,1.336l2.162-0.89l2.162-3.562l2.594-4.007l8.215,3.562l4.756,0.445h3.459l6.055,2.842l-5.038,3.722
		l-3.714,4.035l-1.324,2.089l-1.232,2.567l-0.936,2.697L275.928,406.623z"/>
	<path class="st0" d="M205.933,413.533l-4.854-0.013l-7.402-0.032l-7.396-0.025l-7.409-0.032l-7.402-0.025l-7.396-0.032
		l-7.402-0.025l-7.465-0.031l-0.014-0.023l-1.174-1.801l-0.601-1.282l0.078-3.443l2.037-1.911l2.997-1.557l3.021-2.376l-0.635-0.354
		l-1.227-0.923l-0.655-0.319l1.513-1.452l1.115-1.872l-0.199-1.487l-2.429-0.295l0.32,1.962l-0.582,2.376l-1.266,1.667l-1.721-0.135
		l-0.854,2.575l-1.852,1.742l-2.337,0.659l-2.284-0.719l-2.09-2.206l-0.528-2.261l0.989-4.822l0.233-3.03l0.315-1.223l1.081-1.613
		l4.233-5.043l0.727-1.733l0.698,0.454l1.862,0.879l0.689,0.42l-0.267-0.559l-0.616-2.033l4.136-0.754l0.204,2.427l0.858,2.297
		l1.353,1.388l1.731-0.325l-0.902-2.801l-0.204-3.101l-0.509-2.452l-1.799-0.869l0.635-1.658l2.585-11.431l0.194-1.994l-2.604,3.838
		l-1.091,2.398l-0.941,5.081l-1.222,3.037l-1.576,2.018l-1.595-0.449h-0.883l-1.193,1.648l-2.104,0.639l-2.473,0.33l-2.298,0.734
		l-1.28,1.079l-0.427,1.019l-0.199,1.044l-0.606,1.129l-0.65,0.599l-1.367,0.789l-0.786,0.669l-1.188,2.257l-0.902,0.819
		l-1.207-0.564l-0.378-1.193l-0.01-1.518l-0.223-1.303l-1.091-0.554l-1.518-1.079l-0.621-2.427l0.16-2.577l0.829-1.538l-0.727-1.678
		l-0.504-1.908l-0.398-3.957l0.116-2.083l0.407-1.194l0.737-0.81l2.74-2.199l1.397-0.54l1.527-0.07l3.506,0.405l1.663,0.525
		l1.135,0.989l-0.136,1.629l1.668-1.509l1.314-1.814l1.658-0.995l2.691,0.965l-0.044-2.704l0.936-1.209l1.508-0.75l1.658-1.279
		l-1.484,0.52l-1.615,0.34l-1.503-0.3l-1.164-1.33l5.387-3.364l1.935-1.745l3.094-3.82l1.692-1.47l3.826-1.12l1.852-2.36l1.445-0.54
		l0.994,0.47l0.955,0.9l0.989,0.54l1.169-0.61l0.723-0.55l1.93-0.93l0.041-0.029l0.017,0l7.655,0.184l0.653,0.14l0.653,0.381
		l0.659,0.527l3.43,2.223l1.65,1.384l0.838,0.991l0.757,1.321l0.499,2.686l0.117,1.555l-0.166,1.346l-0.382,0.965l-1.256,1.803
		l-0.394,0.933l0.074,1.009l2.439,3.135l1.472,1.345l0.745,1.244l1.38,8.401l0.025,0.945l-0.117,0.926l-0.376,0.964l-0.591,0.932
		l-1.355,1.776l-1.724,1.497l-0.69,0.774l-0.271,0.825l-0.123,0.863l-0.086,1.801l0.148,1.04l0.407,1.065l1.182,1.217l3.794,3.17
		l1.872,1.128l0.874,0.672l0.745,0.989l0.499,1.61l0.554,4.019l0.419,1.768l0.653,1.154l1.01,1.236l3.837,3.523l1.614,2.154
		l0.671,2.389l0.37,0.843L205.933,413.533z M170.797,341.943l-5.662-0.215l-3.22-1.235l0.213-2.666l-1.881,0.985l-0.698,1.776
		l0.369,1.861l1.329,1.245l-1.479,0.83l-1.227-0.095l-1.193-0.455l-1.392-0.28l-1.004,0.38l-0.427,0.93l-0.243,1.13l-0.364,0.995
		l-3.06,5.445l-1.076,1.27l-1.222,0.56l-2.58,0.615l-1.416,0.955l-1.047,1.35l-1.484,2.854l-1.207,1.215l-2.677,0.9l-2.531-0.51
		l-2.575-0.9l-2.866-0.255l2.798-5.053l0.087-0.89l2.007-0.58l3.307-3.699l-1.595,0.475l-1.542,2.4l-1.324,0.565l-2.633,0.08
		l-1.043,0.24l-0.878,0.52l1.401,1.64l-0.116,1.1l-2.027,2.364l-0.349,0.945l-0.305,1.759l-0.606,1.03l-2.366,2.718l-0.514,1.099
		l-0.543,3.448l0.543,11.634h-0.737l-0.708-23.567l-0.596-3.559l-1.974-5.914l-1.039-2.093l0.017-0.018l0.936-0.991l3.35-1.105
		l0.567-0.597l0.123-0.635l-0.296-0.502l-0.413-0.54l-0.326-0.597l-0.025-1.023l0.339-0.578l3.067-2.611l0.499-0.959l0.031-0.737
		l-0.382-0.483l-0.523-0.387l-0.419-0.388l-0.351-0.534l1.675-7.072l5.992-17.354l0.413-0.223l0.585-0.153l3.917-0.292l0.69-0.14
		l0.591-0.293l0.468-0.388l0.437-0.432l1.164-1.456l0.924-0.75l0.567-0.267l1.256-0.407l1.047-0.655l1.971-2.08l3.122-4.122
		l0.622-1.05l0.837-2.526l0.899-3.716l1.435-2.291l1.533-0.509l5.29-0.484l10.155,0.547l1.158,0.242l0.542,0.401l0.936,0.878
		l0.653,0.49l1.01,0.586l0.862,0.153l0.85,0.013l6.208-1.336l1.275-0.07l3.935,0.465l3.978,1.298l1.133,0.56l1.54,1.043l1.293,1.343
		l1.139,0.515l1.73,0.509l12.994,2.341l1.663-0.025l9.989-1.075l4.015-0.986l2.968-1.4l0.505-0.344l6.454-6.427l0.32-0.528
		l0.265-0.605l0.351-1.426l0.554-10.453l0.209-0.65l0.283-0.586l0.443-0.509l0.616-0.414l1.533-0.745l0.487-0.369l5.918,4.324
		l2.49-0.286l3.32-1.144l2.214,0.286l2.767,2.861l3.874,1.716l15.772,6.292l2.767,2.288l1.66,4.289l-4.427,1.143l-6.364,1.144
		l-5.811,0.858l-2.767,0.572l-2.49,2.001l-5.534,4.573l-2.767,1.429l-3.044,0.286l-4.704,5.429l-2.767,3.428l-3.15,2.454
		l-3.767,2.402l-8.854-0.286l-5.811-0.286l-2.49,1.143l-2.214,2.285l-2.49,0.857l-10.116-1.736l-0.629-0.54l-0.025-0.629
		l-1.035-0.095l-6.14,0.547l-7.187,1.564l-3.831,0.343l-1.176,0.598l-1.355,1.125l-3.27,3.909l-5.967,8.959l-1.189,4.142
		l-1.712,2.312L170.797,341.943z"/>
	<path class="st0" d="M128.477,180.578l7.826-10.451l15.58-26.304l0.553-1.24l-0.204-1.275l-0.587-1.361h0.025h0.129l19.3-0.429
		l2.266-0.416l2.248-0.742l2.58-1.882l1.675-0.646l2.032-0.327l1.848-0.096l1.675-0.275l0.911-0.98l0.505-0.851l1.497-4.104
		l0.782-1.498l1.195-0.999l5.136-2.696l0.628-0.474l0.308-0.615l0.333-1.268l0.283-0.564l0.32-0.519l0.813-0.897l4.145-3.466
		l0.616-0.352l0.031-0.032l22.49-12.771l0.751-0.564l0.837-0.987l1.244-2.141l0.468-1.224l0.37-0.475l0.517-0.346l2.272-1.18
		l1.989-1.462l0.431-0.43l0.751-0.923l1.503,0.955l2.488,2.327l24.498,28.201l1.293,0.833l18.73-1.305l0.867-8.282l68.196,0.146
		l2.02,0.717l9.575,5.149l6.252-0.428l13.404,9.442l6.053,8.989l-9.512,8.986l-4.756,3.144l-6.053,2.246l-3.459,1.347l-0.865,22.445
		l-4.324,6.73l19.89,10.315l9.945-1.345l-3.892,17.035l-2.162,13.44l5.124,2.543l-9.448,2.831l-13.404,1.791l-8.215,3.134
		l3.459,12.086l5.189,11.633l-4.324,8.945l-5.189,3.577l-1.73,9.835l-4.563,3.424l-2.722-3.705l-1.478-1.159l-1.971,0.458
		l-2.038,0.968l-10.543,6.518l-2.297,0.91l-2.796,0.656l-4.052-0.401l-18.192-3.66l-5.986-2.279l-9.524-5.777l-4.308-2.614
		l-3.079-3.407l-0.751-2.681l-0.604-7.408l-0.339-0.618l-0.425-0.472l-1.041-0.267l-1.533-0.121l-7.895,0.745l-1.108-0.166
		l-1.786-0.637l-0.924-0.548l-1.164-0.835l-0.53-0.28l-3.307-0.299l-6.3,0.217l-3.079,0.956l-2.118-1.695l-0.56-1.618l-0.105-1.631
		l-0.148-0.688l-0.296-0.548l-0.363-0.452l-2.02-1.408l-2.993-1.313l-0.517-0.344l-0.431-0.433l-0.333-0.497l-0.702-1.861
		l-0.339-0.446l-0.431-0.281l-0.831-0.338l-0.499-0.268l-0.462-0.37l-0.345-0.523l-0.222-0.657l-0.142-0.759l-0.105-1.6l0.037-1.109
		l-1.798-0.338l-29.228,0.185l-2.759,0.688l-3.831,3.366l-2.605-1.364l-2.691-1.046l-0.567-0.306l-0.628-0.491l-0.628-0.631
		l-0.813-1.25l-0.388-0.899l-0.259-0.874l-0.406-2.219l-0.216-0.676l-0.271-0.618l-0.634-1.014l-3.492-4.241l-0.641-1.065
		l-1.145-3.024l-0.283-1.212l-0.123-1.034l0.074-1.072l0.123-0.517l0.271-3.152l-0.339-1.678l-0.499-1.264l-0.443-0.817
		l-0.333-0.485l-1.059-2.349l-0.345-0.453l-0.48-0.249l-0.665,0.249l-1.035,0.772l-0.48,0.287l-0.585,0.07l-0.536-0.294
		l-0.437-0.709l-0.376-1.589l-0.665-5.899l-0.172-0.638l-0.246-0.524l-0.511-0.46l-0.647-0.332l-1.146-0.102l-0.677,0.064
		l-1.811,0.46l-1.404,0.115l-5.616-1.43l-0.905,0.019l-0.739,0.192l-0.536,0.338l-0.456,0.409l-0.376,0.46l-1.004,1.532
		l-1.164,1.366l-1.361,1.992l-0.794,0.875l-1.835,2.432l-0.696,1.857l-0.339,1.353l-0.45,1.213l-0.628,1.027l-5.382,5.679
		l-0.616,1.046l-1.552,1.831l-0.443,0.396l-0.505,0.325l-0.61,0.077l-0.61-0.115l-0.591-0.357l-0.499-0.638l-0.573-1.059
		l-0.135-2.016l0.16-0.523l0.16-0.389l0.271-0.466l0.166-0.517l0.092-0.53l-0.148-0.676l-0.332-0.625l-0.813-0.964l-0.69-0.498
		l-1.915-0.906l-1.028-0.67l-0.456-0.37l-0.431-0.434l-1.429-1.96l-0.764-1.57l-0.351-0.562l-0.425-0.504l-0.702-0.46l-1.404-0.638
		l-0.985-0.262l-0.69-1.347l-0.32-2.362l0.585-5.21l0.881-2.887l2.118-4.267l0.573-2.402l0.006-0.831l-0.062-0.664l-0.591-1.444
		l-0.523-0.888l-3.596-2.882l-0.573-0.345L128.477,180.578z"/>
	<path class="st0" d="M75.25,252.229l1.075-0.461l4.088-3.317l18.94-22.723l3.792-5.676l8.302-9.291l16.574-29.573l0.457-0.61
		l0.007,0.004l0.573,0.345l3.596,2.882l0.523,0.888l0.591,1.444l0.062,0.664l-0.006,0.831l-0.573,2.402l-2.118,4.267l-0.881,2.887
		l-0.585,5.21l0.32,2.362l0.69,1.347l0.985,0.262l1.404,0.638l0.702,0.46l0.425,0.504l0.351,0.562l0.764,1.57l1.429,1.96
		l0.431,0.434l0.456,0.37l1.028,0.67l1.915,0.906l0.69,0.498l0.813,0.964l0.332,0.625l0.148,0.676l-0.092,0.53l-0.166,0.517
		l-0.271,0.466l-0.16,0.389l-0.16,0.523l0.135,2.016l0.573,1.059l0.499,0.638l0.591,0.357l0.61,0.115l0.61-0.077l0.505-0.325
		l0.443-0.396l1.552-1.831l0.616-1.046l5.382-5.679l0.628-1.027l0.45-1.213l0.339-1.353l0.696-1.857l1.835-2.432l0.794-0.875
		l1.361-1.992l1.164-1.366l1.004-1.532l0.376-0.46l0.456-0.409l0.536-0.338l0.739-0.192l0.905-0.019l5.616,1.43l1.404-0.115
		l1.811-0.46l0.677-0.064l1.146,0.102l0.647,0.332l0.511,0.46l0.246,0.524l0.172,0.638l0.665,5.899l0.376,1.589l0.437,0.709
		l0.536,0.294l0.585-0.07l0.48-0.287l1.035-0.772l0.665-0.249l0.48,0.249l0.345,0.453l1.059,2.349l0.333,0.485l0.443,0.817
		l0.499,1.264l0.339,1.678l-0.271,3.152l-0.123,0.517l-0.074,1.072l0.123,1.034l0.283,1.212l1.145,3.024l0.641,1.065l3.492,4.241
		l0.634,1.014l0.271,0.618l0.216,0.676l0.406,2.219l0.259,0.874l0.388,0.899l0.813,1.25l0.628,0.631l0.628,0.491l0.567,0.306
		l2.691,1.046l2.605,1.364l-0.462,1.549l-1.004,0.714l-5.721,3.002l-1.373,0.382l-1.595,0.102l-1.028-0.14l-0.751-0.229l-0.64-0.293
		l-0.474-0.382l-0.339-0.497l-0.24-0.599l-0.111-0.676l-0.037-0.701l-0.24-0.663l-0.419-0.58l-0.788-0.421l-1.958-0.771
		l-0.517-0.338l-4.009-3.245l-0.591-0.166h-0.462l-0.203,0.064l-0.074,0.032l-0.043,0.032l-0.123,0.077l-0.53,0.21l-0.911,0.236
		l-1.724,0.242l-1.053-0.025l-0.856-0.14l-1.065-0.408l-1.398-0.842l-0.277-0.281l-0.339-0.281l-0.468-0.217l-28.716,8.294
		l-2.248,1.205l-1.096,1.797l-0.708,1.918l-0.548,2.747l0.086,0.573l0.246,0.357l0.677,0.65l0.474,0.306l1.096,0.306l0.585,0.229
		l0.505,0.344l0.345,0.497l0.209,0.643l0.123,0.739l-0.037,3.109l-0.308,1.299l-0.086,0.675l0.222,1.452l0.185,0.707l0.24,0.611
		l0.443,0.395l1.164,0.471l0.511,0.344l0.486,0.395l0.388,0.427l0.277,0.503l0.074,0.573l-0.074,0.535l-0.413,1.331l-0.148,0.993
		l-0.056,1.063l0.203,0.567l0.376,0.427l0.493,0.344l1.133,0.548l0.493,0.35l0.4,0.452l0.289,0.586l0.191,0.681l0.117,0.751
		l-0.302,1.057l-0.634,1.203l-1.755,1.916l-0.819,1.095l-0.53,0.872l-0.006,0.726l0.117,0.662l0.296,0.579l0.394,0.439l1.429,0.897
		l5.992,2.692l2.519,0.789l-0.899,3.716l-0.837,2.526l-0.622,1.05l-3.122,4.122l-1.971,2.08l-1.047,0.655l-1.256,0.407l-0.567,0.267
		l-0.924,0.75l-1.164,1.456l-0.437,0.432l-0.468,0.388l-0.591,0.293l-0.69,0.14l-3.917,0.292l-0.585,0.153l-0.413,0.223
		l-5.992,17.354l-1.675,7.072l0.351,0.534l0.419,0.388l0.523,0.387l0.382,0.483l-0.031,0.737l-0.499,0.959l-3.067,2.611
		l-0.339,0.578l0.025,1.023l0.326,0.597l0.413,0.54l0.296,0.502l-0.123,0.635l-0.567,0.597l-3.35,1.105l-0.936,0.991l-0.017,0.018
		l-1.133-2.283l-1.062-1.31l-1.557-0.73l-3.103-0.7l-1.183-1.08l-0.616-1.771l-1.013-6.628l-0.776-2.101l-0.96-1.546l-2.255-2.302
		l-1.033-0.57l-0.785-0.17l-0.514-0.51l-0.184-1.611l0.146-1.261l0.601-2.417l0.141-1.406l-0.582-2.032l-1.44-2.183l-3.743-3.805
		l-8.525-4.046l-1.309-1.412l-0.679-1.623l-4.209-6.356l-3.142-8.472l-1.259-1.744l0.004-0.023l0.012-0.07l2.242-16.8l-0.148-1.146
		l-0.388-1.108l-1.86-3.191l-0.406-1.115l-0.049-2.911l-0.105-0.675l-0.69-2.236l-2.463-5.531L75.25,252.229z"/>
	<path class="st0" d="M79.251,287.215l-3.552-4.921l-3.424-3.173l-2.046-1.419l-2.342-1.093l-2.585-0.436l-1.93-0.546l-5.053-2.667
		l-0.776-0.913l-3.938,0.05l-3.423-0.421l-2.987,0.201l-2.672,1.925l1.004,1.183l1.435,0.431l-0.892,1.795l-1.547,0.732l0.407,0.391
		l0.732,0.892l0.407,0.391l-0.737,1.764l-0.403,0.12l-0.407,0.717l-1.566-1.022l-8.011-9.981l-1.891-1.765l19.673-5.286l5.819-4.775
		l16.702-7.16l0.149,0.18l2.463,5.531l0.69,2.236l0.105,0.675l0.049,2.911l0.406,1.115l1.86,3.191l0.388,1.108l0.148,1.146
		l-2.242,16.8l-0.012,0.07L79.251,287.215z"/>
	<path class="st0" d="M200.327,243.358l3.831-3.366l2.759-0.688l29.228-0.185l1.798,0.338l-0.037,1.109l0.105,1.6l0.142,0.759
		l0.222,0.657l0.345,0.523l0.462,0.37l0.499,0.268l0.831,0.338l0.431,0.281l0.339,0.446l0.702,1.861l0.333,0.497l0.431,0.433
		l0.517,0.344l2.993,1.313l2.02,1.408l0.363,0.452l0.296,0.548l0.148,0.688l0.105,1.631l0.56,1.618l2.118,1.695l3.079-0.956
		l6.3-0.217l3.307,0.299l0.53,0.28l1.164,0.835l0.924,0.548l1.786,0.637l1.108,0.166l7.895-0.745l1.533,0.121l1.041,0.267
		l0.425,0.472l0.339,0.618l0.604,7.408l0.751,2.681l3.079,3.407l4.308,2.614l-2.557,11.271l-3.597,4.003l-1.66-4.289l-2.767-2.288
		l-15.772-6.292l-3.874-1.716l-2.767-2.861l-2.214-0.286l-3.32,1.144l-2.49,0.286l-5.918-4.324l-0.487,0.369l-1.533,0.745
		l-0.616,0.414l-0.443,0.509l-0.283,0.586l-0.209,0.65l-0.554,10.453l-0.351,1.426l-0.265,0.605l-0.32,0.528l-6.454,6.427
		l-0.505,0.344l-2.968,1.4l-4.015,0.986l-9.989,1.075l-1.663,0.025l-12.994-2.341l-1.73-0.509l-1.139-0.515l-1.293-1.343
		l-1.54-1.043l-1.133-0.56l-3.978-1.298l-3.935-0.465l-1.275,0.07l-6.208,1.336l-0.85-0.013l-0.862-0.153l-1.01-0.586l-0.653-0.49
		l-0.936-0.878l-0.542-0.401l-1.158-0.242l-10.155-0.547l-5.29,0.484l-1.533,0.509l-1.435,2.291l-2.519-0.789l-5.992-2.692
		l-1.429-0.897l-0.394-0.439l-0.296-0.579l-0.117-0.662l0.006-0.726l0.53-0.872l0.819-1.095l1.755-1.916l0.634-1.203l0.302-1.057
		l-0.117-0.751l-0.191-0.681l-0.289-0.586l-0.4-0.452l-0.493-0.35l-1.133-0.548l-0.493-0.344l-0.376-0.427l-0.203-0.567l0.056-1.063
		l0.148-0.993l0.413-1.331l0.074-0.535l-0.074-0.573l-0.277-0.503l-0.388-0.427l-0.486-0.395l-0.511-0.344l-1.164-0.471
		l-0.443-0.395l-0.24-0.611l-0.185-0.707l-0.222-1.452l0.086-0.675l0.308-1.299l0.037-3.109l-0.123-0.739l-0.209-0.643l-0.345-0.497
		l-0.505-0.344l-0.585-0.229l-1.096-0.306l-0.474-0.306l-0.677-0.65l-0.246-0.357l-0.086-0.573l0.548-2.747l0.708-1.918l1.096-1.797
		l2.248-1.205l28.716-8.294l0.468,0.217l0.339,0.281l0.277,0.281l1.398,0.842l1.065,0.408l0.856,0.14l1.053,0.025l1.724-0.242
		l0.911-0.236l0.53-0.21l0.123-0.077l0.043-0.032l0.074-0.032l0.203-0.064h0.462l0.591,0.166l4.009,3.245l0.517,0.338l1.958,0.771
		l0.788,0.421l0.419,0.58l0.24,0.663l0.037,0.701l0.111,0.676l0.24,0.599l0.339,0.497l0.474,0.382l0.64,0.293l0.751,0.229
		l1.028,0.14l1.595-0.102l1.373-0.382l5.721-3.002l1.004-0.714L200.327,243.358z"/>
</g>
<g id="Copyright">
	<text transform="matrix(1 0 0 1 681.6426 577.5916)" class="st1 st2">© Vemaps.com</text>
</g>
</svg>
